<?xml version="1.0" standalone="no"?>
<!DOCTYPE svg PUBLIC "-//W3C//DTD SVG 20010904//EN"
 "http://www.w3.org/TR/2001/REC-SVG-20010904/DTD/svg10.dtd">
<svg version="1.0" xmlns="http://www.w3.org/2000/svg"
 width="192.000000pt" height="192.000000pt" viewBox="0 0 192.000000 192.000000"
 preserveAspectRatio="xMidYMid meet">
<metadata>
Created by potrace 1.14, written by Peter Selinger 2001-2017
</metadata>
<g transform="translate(0.000000,192.000000) scale(0.100000,-0.100000)"
fill="#000000" stroke="none">
<path d="M755 1854 c-112 -18 -243 -80 -313 -147 -81 -78 -92 -138 -46 -254
129 -321 326 -408 569 -251 97 63 114 102 81 181 -37 89 -201 176 -289 154
-68 -18 -116 -121 -68 -146 14 -8 25 -6 44 9 32 26 34 25 35 -7 1 -44 -25
-126 -48 -150 -25 -28 -55 -17 -86 30 -37 56 -47 104 -41 194 5 94 36 170 75
189 13 7 39 27 58 45 35 34 36 34 125 33 74 -1 98 -6 141 -28 58 -28 125 -85
151 -128 11 -17 31 -31 57 -38 43 -11 49 -24 26 -49 -8 -9 -28 -52 -44 -96
-17 -44 -57 -135 -91 -202 -34 -67 -61 -126 -61 -132 0 -6 -17 -19 -37 -27
-110 -47 -161 -92 -194 -168 -20 -47 -21 -62 -16 -211 5 -166 16 -215 48 -215
31 0 162 49 181 68 27 26 29 69 5 127 -42 106 -43 154 -4 173 12 6 53 20 90
32 92 28 141 62 176 124 16 28 59 83 95 121 77 82 120 164 134 254 23 157 -14
250 -143 356 -61 51 -238 128 -346 151 -36 7 -230 13 -264 8z"/>
<path d="M765 326 c-17 -39 -14 -151 5 -185 21 -40 77 -55 203 -52 l47 1 0 75
c0 115 -23 147 -130 179 -85 25 -109 22 -125 -18z"/>
</g>
</svg>
